<?xml version="1.0" encoding="UTF-8"?>
<svg width="936px" height="217px" viewBox="0 0 936 217" version="1.1" xmlns="http://www.w3.org/2000/svg" xmlns:xlink="http://www.w3.org/1999/xlink">
    <title>outlinss</title>
    <g id="logo" stroke="none" stroke-width="1" fill="none" fill-rule="evenodd">
        <g id="v-3" transform="translate(-61, -43)" fill="#FFFFFF" fill-rule="nonzero">
            <g id="outlinss" transform="translate(61, 43)">
                <path d="M622.65,213.75 C615.35,215.45 607.8,216.3 600,216.3 C589.993013,216.3 581.846774,214.533866 575.561283,211.001598 L632.880419,211.000482 C629.935223,211.931077 626.525083,212.847583 622.65,213.75 Z M913.35,213.3 C905.05,215.3 897,216.3 889.2,216.3 C878.633864,216.3 869.99451,214.533784 863.281937,211.001351 L921.889009,211.00118 C919.164134,211.818595 916.317797,212.584868 913.35,213.3 Z M730.5,216 C717.687273,216 706.495938,214.333569 696.925995,211.000707 L766.352893,211.001776 C755.167422,214.333925 743.216458,216 730.5,216 Z M935,204.655 L935.4,206.1 L935,206.272 L935,204.655 Z M637.806,197 L638.742,203 L566.637056,203.001307 C565.424525,201.211291 564.407606,199.211065 563.586299,197.00063 L637.806,197 Z M795.844,197 L795.9,197.1 C793.169873,199.187744 790.044822,201.154593 786.524846,203.000547 L681.165871,203.000928 C678.610491,201.190034 676.239203,199.189934 674.052007,197.000628 L795.844,197 Z M932.886,197 L934.543,203 L853.489844,203.000767 C852.064147,201.212754 850.80255,199.21278 849.705052,197.000845 L932.886,197 Z M635.623,183 L636.559,189 L561.59454,189.000914 C561.315185,187.106876 561.134275,185.107046 561.051809,183.001424 L635.623,183 Z M788.209,183 L791.481,189 L667.371093,189.000929 C666.011434,187.0805 664.743166,185.080285 663.566289,183.000285 L788.209,183 Z M929.019,183 L930.676,189 L846.697896,189.000611 C846.174447,187.106834 845.733266,185.106793 845.374354,183.000488 L929.019,183 Z M607.876981,175.000963 L561,175 L561,169 L604.64441,169.00094 C605.436082,171.44431 606.513605,173.444318 607.876981,175.000963 Z M705.15,173.25 C705.800229,173.862535 706.489088,174.446208 707.216578,175.00102 L659.654236,175.000766 C658.840899,173.058972 658.09412,171.059072 657.413898,169.001066 L701.419797,169.001016 C702.548997,170.554772 703.792398,171.9711 705.15,173.25 Z M781.5,170.7 L783.845,175 L773.897005,175.000685 C776.898649,173.580475 779.432981,172.146914 781.5,170.7 Z M889.95,170.85 C890.687812,172.473187 891.639016,173.856852 892.803611,175.000996 L844.44052,175.000185 C844.307784,173.071533 844.229988,171.071918 844.207132,169.001339 L889.204362,169.001531 C889.439147,169.656768 889.687693,170.272925 889.95,170.85 Z M926.7,174.6 L926.809,175 L925.779123,175.001327 C926.084614,174.870854 926.391573,174.737079 926.7,174.6 Z M697.077024,161.000692 L655.172642,161.000806 C654.717092,159.04647 654.313902,157.046425 653.96307,155.000669 L695.149849,155.000985 C695.68873,157.125451 696.331122,159.125353 697.077024,161.000692 Z M887.29271,161.001328 L844.199,161 L844.199,155 L886.607356,155.001532 C886.780568,157.158343 887.009019,159.158275 887.29271,161.001328 Z M798.3,143.1 L693.3,143.1 C693.398114,144.434357 693.524627,145.73454 693.679537,147.000549 L652.881292,147.000462 C652.683324,145.03824 652.5285,143.038353 652.416819,141.000801 L798.751116,140.999986 C798.606683,141.696597 798.456311,142.396602 798.3,143.1 Z M886.199,141 L886.2,143.7 C886.2,144.828808 886.210032,145.929123 886.230097,147.000946 L844.199,147 L844.199,141 L886.199,141 Z M800.85,127.5 C800.669279,129.307205 800.442835,131.140539 800.170667,133 L652.200032,133.001165 C652.200011,132.967453 652.2,132.933731 652.2,132.9 C652.2,130.897873 652.237909,128.931253 652.313726,127.000138 L800.899413,126.998801 C800.883222,127.165418 800.866752,127.332485 800.85,127.5 Z M886.199,127 L886.199,133 L844.199,133 L844.199,127 L886.199,127 Z M801.6,113.7 C801.6,115.400724 801.559007,117.167036 801.477021,118.998938 L652.864896,118.999674 C653.069619,116.955567 653.32162,114.95574 653.620896,113.000194 L695.537466,112.999963 C695.217748,114.678625 694.971926,116.411971 694.8,118.2 L762.6,118.2 C762.730522,116.405323 762.786511,114.67187 762.767969,112.999639 L801.597847,112.99993 C801.599282,113.232569 801.6,113.465926 801.6,113.7 Z M886.199,113 L886.199,119 L844.199,119 L844.199,113 L886.199,113 Z M697.775446,105.000136 L655.167084,104.999625 C655.652667,102.943986 656.197852,100.944172 656.802639,99.0001812 L700.620637,99.0005064 C699.525198,100.891572 698.576801,102.891449 697.775446,105.000136 Z M801.241695,105.000368 L762.026914,105.000506 C761.63123,102.870797 761.077825,100.870644 760.366701,99.000047 L800.5114,99.0002288 C800.820773,100.934334 801.064205,102.93438 801.241695,105.000368 Z M886.199,99 L886.199,105 L844.199,105 L844.199,99 L886.199,99 Z M706.807863,91.0002426 L659.764028,91.0001283 C660.665906,88.9245737 661.648434,86.9245574 662.711611,85.0000794 L716.736001,84.9994141 C712.859517,86.4060032 709.550138,88.4062794 706.807863,91.0002426 Z M798.7489,91.0000115 L755.717375,90.9998584 C753.492362,88.4061368 750.692295,86.4060185 747.317176,84.9995035 L796.657208,85.0002102 C797.449747,86.9048359 798.146977,88.9047697 798.7489,91.0000115 Z M928.499,85 L928.5,89.1 L886.2,89.1 L886.199,91 L844.199,91 L844.2,89.1 L820.2,89.1 L820.199,85 L928.499,85 Z M792.563836,76.9996875 L667.924814,77.0005175 C669.541855,74.8836188 671.28361,72.8835303 673.15008,71.000252 L788.345919,71.0002961 C789.855252,72.8595223 791.261224,74.8593194 792.563836,76.9996875 Z M928.499,71 L928.499,77 L820.199,77 L820.199,71 L928.499,71 Z M780.102331,62.9993224 L682.769345,62.9996138 C686.132474,60.7080601 689.735618,58.708249 693.578777,57.0001806 L770.333733,56.9991182 C773.793506,58.6825159 777.049706,60.6825839 780.102331,62.9993224 Z M928.499,57 L928.499,63 L820.199,63 L820.199,57 L928.499,57 Z M886.199,43 L886.199,49 L844.199,49 L844.199,43 L886.199,43 Z M886.199,29 L886.199,35 L844.199,35 L844.2,32.4 L857.064,29 L886.199,29 Z M561,155 L603,155 L603,156.3 C603,157.957328 603.058254,159.524303 603.174762,161.000924 L561,161 L561,155 Z M561,141 L603,141 L603,147 L561,147 L561,141 Z M561,127 L603,127 L603,133 L561,133 L561,127 Z M561,113 L603,113 L603,119 L561,119 L561,113 Z M561,99 L603,99 L603,105 L561,105 L561,99 Z M561,85 L603,85 L603,91 L561,91 L561,85 Z M561,71 L603,71 L603,77 L561,77 L561,71 Z M561,57 L603,57 L603,63 L561,63 L561,57 Z M561,43 L603,43 L603,49 L561,49 L561,43 Z M561,29 L603,29 L603,35 L561,35 L561,29 Z M561,15 L603,15 L603,21 L561,21 L561,15 Z M561,1.5 L603,1.5 L603,7 L561,7 L561,1.5 Z" id="Combined-Shape"></path>
                <g id="NET">
                    <polygon id="Path" points="56.7 102 38.7 70.5 37.2 70.5 42 102.3 42 211.5 0 211.5 0 0 32.1 0 118.8 111.9 135.9 142.5 137.7 142.5 132.9 111.6 132.9 1.5 174.9 1.5 174.9 213 142.8 213"></polygon>
                    <polygon id="Path" points="213.9 1.5 349.2 1.5 349.2 40.5 258.3 40.5 258.3 86.1 340.8 86.1 340.8 125.1 258.3 125.1 258.3 172.5 350.7 172.5 350.7 211.5 213.9 211.5"></polygon>
                    <polygon id="Path" points="545.4 40.5 478.8 40.5 478.8 211.5 434.4 211.5 434.4 40.5 367.8 40.5 367.8 1.5 545.4 1.5"></polygon>
                </g>
            </g>
        </g>
    </g>
</svg>